PathFileType	4	(X/Y/Z)	Kaydara																																																																																																																									
DataRate	CameraRate	NumFrames	NumMarkers	Units	OrigDataRate	OrigDataStartFrame	OrigNumFrames																																																																																																																					
30	30	4	41	mm	30	16	133																																																																																																																					
Frame#	Time	PAIB_LFHD			PAIB_RFHD			PAIB_LBHD			PAIB_RBHD			PAIB_LFTShould			PAIB_RFTShould			PAIB_LRRShould			PAIB_RRRShould			PAIB_T10			PAIB_STRN			PAIB_TRUN			PAIB_LSHO			PAIB_LUPA			PAIB_LELB			PAIB_LFRM			PAIB_LWRA			PAIB_LWRB			PAIB_LFIN			PAIB_RSHO			PAIB_RUPA			PAIB_RELB			PAIB_RFRM			PAIB_RWRA			PAIB_RWRB			PAIB_RFIN			PAIB_LFWT			PAIB_RFWT			PAIB_LBWT			PAIB_RBWT			PAIB_LTHI			PAIB_LKNE			PAIB_LSHN			PAIB_LANK			PAIB_LHEE			PAIB_LTOE			PAIB_RTHI			PAIB_RKNE			PAIB_RSHN			PAIB_RANK			PAIB_RHEE			PAIB_RTOE		
		X1	Y1	Z1	X2	Y2	Z2	X3	Y3	Z3	X4	Y4	Z4	X5	Y5	Z5	X6	Y6	Z6	X7	Y7	Z7	X8	Y8	Z8	X9	Y9	Z9	X10	Y10	Z10	X11	Y11	Z11	X12	Y12	Z12	X13	Y13	Z13	X14	Y14	Z14	X15	Y15	Z15	X16	Y16	Z16	X17	Y17	Z17	X18	Y18	Z18	X19	Y19	Z19	X20	Y20	Z20	X21	Y21	Z21	X22	Y22	Z22	X23	Y23	Z23	X24	Y24	Z24	X25	Y25	Z25	X26	Y26	Z26	X27	Y27	Z27	X28	Y28	Z28	X29	Y29	Z29	X30	Y30	Z30	X31	Y31	Z31	X32	Y32	Z32	X33	Y33	Z33	X34	Y34	Z34	X35	Y35	Z35	X36	Y36	Z36	X37	Y37	Z37	X38	Y38	Z38	X39	Y39	Z39	X40	Y40	Z40	X41	Y41	Z41
																																																																																																																												
1	0.5	270.42587	1704.36432	-2035.21332	84.75487	1710.23224	-2041.68884	278.03278	1638.00247	-2147.11151	76.55287	1660.07599	-2146.79443	234.44204	1443.78098	-1990.5603	110.08084	1442.21756	-1987.99591	238.12185	1500.60364	-2141.147	87.08594	1500.67673	-2127.24213	156.22136	1337.87994	-2209.91989	182.12479	1377.16965	-1947.30103	181.40682	1275.84488	-1924.74457	363.33199	1454.58389	-2081.43188	425.86422	1228.75565	-2097.20139	439.08203	1148.08693	-2138.8765	471.28555	1037.41409	-2095.19989	435.98289	926.58546	-1995.74249	463.33961	906.17729	-2066.0762	487.28695	873.56735	-2004.85703	-21.4028	1445.56152	-2044.15375	-96.29609	1277.93839	-2094.89426	-125.83226	1164.28055	-2103.49121	-152.0462	1033.18886	-2061.96136	-100.33143	935.31525	-1955.73669	-167.43256	920.65414	-2002.65244	-161.73246	889.95857	-1935.19897	278.99929	976.41144	-1963.82736	42.48561	977.09824	-1960.14832	213.5733	1023.73695	-2178.70163	69.92962	1025.51132	-2172.8186	262.21004	749.96414	-2174.17191	305.55462	501.33686	-2088.22632	280.76908	312.90272	-2085.17303	282.58066	129.97169	-2176.61957	228.47492	121.09482	-2224.43329	261.73883	75.00442	-2002.33795	14.85591	725.34355	-2160.35934	1.61334	486.15715	-2073.1572	54.2932	298.34972	-2070.75287	20.96657	105.44167	-2172.48627	87.85325	113.70555	-2219.68475	28.39681	77.37287	-1999.31488
2	0.533	270.0017	1704.38461	-2033.97003	84.38364	1710.03387	-2040.78003	277.96	1637.95639	-2145.78094	76.40247	1659.92218	-2146.08383	233.91657	1443.16666	-1989.1777	109.79067	1441.95663	-1987.26868	237.99047	1500.34302	-2140.06012	86.86772	1500.56213	-2126.42471	156.12142	1337.79236	-2209.06189	181.66327	1376.81488	-1946.50208	180.82548	1275.44807	-1923.9595	363.12351	1454.20303	-2080.24155	425.23914	1228.27072	-2095.76981	438.43365	1147.67586	-2137.57278	471.21868	1037.00066	-2095.01862	436.93172	925.07698	-1996.41724	464.04324	905.39284	-2067.06421	489.22558	872.63771	-2006.95847	-21.58224	1445.20493	-2043.41797	-96.07546	1277.29561	-2093.68546	-125.24978	1163.47511	-2102.03232	-150.60823	1032.51198	-2059.38324	-98.14878	936.0215	-1952.21588	-165.52164	920.95253	-1999.73419	-159.11266	890.49881	-1931.18027	278.68996	976.25877	-1962.80289	42.08473	976.75049	-1959.33014	213.37259	1023.85445	-2177.63397	69.7541	1025.47211	-2171.94336	262.41629	750.20088	-2173.66714	305.49347	501.37192	-2088.22876	280.70971	312.98351	-2085.25604	282.45644	130.04622	-2176.67694	228.35596	121.17981	-2224.44901	261.70929	75.0272	-2002.30377	15.2103	725.17563	-2159.54697	1.69418	485.93212	-2072.30835	54.51865	298.15243	-2070.24002	21.19976	105.4224	-2172.47955	87.92236	113.8206	-2219.61594	28.48292	77.31613	-1999.2366
3	0.567	269.59251	1704.39728	-2032.4231	83.90882	1709.88998	-2039.88724	277.9018	1638.16086	-2144.31686	76.33026	1659.98383	-2145.2803	232.90617	1442.81738	-1987.74643	109.2909	1441.75888	-1986.53214	237.79192	1500.00366	-2139.0686	86.65539	1500.37109	-2125.66467	155.99084	1337.53662	-2208.13644	181.24722	1376.65558	-1945.73715	180.29648	1275.28976	-1923.06122	362.76821	1453.68637	-2079.14322	424.87976	1227.83958	-2094.3837	438.24261	1147.41943	-2136.49429	471.19717	1036.60416	-2094.20883	437.2776	923.99689	-1996.14822	464.49986	904.90349	-2066.92322	489.83765	871.94328	-2007.01904	-21.80485	1444.89014	-2042.78412	-95.96917	1276.76956	-2092.83234	-124.72816	1162.76245	-2100.95322	-149.03181	1031.81252	-2057.00134	-95.49088	936.89728	-1949.09576	-162.86177	920.81398	-1996.28693	-156.12639	891.18263	-1927.39655	278.53662	975.97107	-1961.87225	42.11242	976.68884	-1958.51929	213.27904	1024.0168	-2176.63025	69.72085	1025.64201	-2171.04004	262.40261	750.33836	-2173.18893	305.47615	501.20022	-2087.86194	280.6591	312.85942	-2085.05096	282.38802	130.09525	-2176.61041	228.35855	121.21391	-2224.39255	261.67942	75.01948	-2002.3291	14.97454	725.2095	-2158.91678	1.7113	485.85514	-2071.63727	54.54955	298.09645	-2069.87396	21.18398	105.47577	-2172.41989	87.95989	113.9748	-2219.50394	28.56173	77.2239	-1999.06525
4	0.6	269.25793	1704.41452	-2030.93872	83.53214	1709.87427	-2038.76785	277.79064	1638.47015	-2142.96677	76.20148	1660.11063	-2144.30832	232.08588	1442.34955	-1986.43524	108.8167	1441.20972	-1985.89447	237.57809	1499.6286	-2138.1076	86.47012	1500.09552	-2124.78363	155.95576	1337.3613	-2207.20413	181.06003	1376.3652	-1944.86954	180.16972	1275.08095	-1922.16354	362.43507	1453.18024	-2078.01147	424.6909	1227.41371	-2093.21655	437.95288	1146.85165	-2135.04395	471.0862	1036.27159	-2092.95776	437.20081	923.65082	-1994.80377	464.47685	904.58565	-2065.53467	489.78565	871.61644	-2005.57724	-22.00832	1444.43573	-2042.04544	-95.91738	1276.20445	-2092.19696	-124.43466	1162.12906	-2100.10468	-147.56778	1031.15738	-2054.87503	-92.39527	937.70378	-1946.30417	-160.07725	920.32509	-1992.74979	-152.70994	891.73752	-1923.85025	278.64319	975.72121	-1961.43494	42.25154	976.60439	-1957.75208	213.22758	1024.10583	-2175.97855	69.67298	1025.77232	-2170.22827	262.07981	750.32242	-2172.64969	305.49112	501.00159	-2087.2879	280.63705	312.75955	-2084.64035	282.35229	130.05615	-2176.59088	228.36178	121.37016	-2224.3718	261.64637	75.02775	-2002.2905	14.55265	725.30136	-2158.50922	1.68664	485.89077	-2071.41571	54.61729	298.18283	-2069.85474	21.13398	105.49598	-2172.35672	87.90474	114.08583	-2219.54758	28.58053	77.20235	-1998.95844
